<svg xmlns="http://www.w3.org/2000/svg" viewBox="0 0 720 720" width="720" height="720">
	<style>
		tspan { white-space:pre }
		.shp0 { fill: #090504 } 
	</style>
	<path fill-rule="evenodd" class="shp0" d="M274.5 271.09C278.9 271.06 284.07 271.45 286 271.96C287.93 272.48 292.65 273.61 296.5 274.49C300.35 275.37 308 278.28 313.5 280.95C319.41 283.82 326.36 288.22 330.5 291.71C334.35 294.95 340.11 300.73 343.3 304.55C346.48 308.37 350.81 314.88 352.92 319C355.03 323.13 357.68 329.43 358.82 333C359.96 336.57 361.37 342.2 361.96 345.5C362.54 348.8 363.01 355.66 363.01 360.75C363 365.84 362.29 373.49 361.41 377.75C360.54 382.01 358.25 389.32 356.32 394C354.39 398.68 350.85 405.43 348.46 409C346.07 412.57 341.84 417.98 333.99 426.5L333.99 436.25C334 444.25 333.73 446 332.5 446C331.68 446 326.16 445.06 320.25 443.9C310.29 441.96 309.17 441.92 305 443.34C302.52 444.19 297.01 445.81 292.75 446.94C287.38 448.37 281.93 449 275 449C267.61 449 262.45 448.35 255.25 446.51C249.88 445.13 241.01 441.8 235.5 439.08C229.38 436.06 222.61 431.69 218.06 427.82C213.97 424.34 208.43 418.8 205.76 415.5C203.08 412.2 198.66 405 195.93 399.5C193.21 394 190.13 386.13 189.09 382C188.06 377.88 186.91 370.68 186.53 366C186.05 360.11 186.33 354.35 187.42 347.25C188.29 341.61 190.34 333.51 191.98 329.25C193.62 324.99 196.66 318.64 198.73 315.16C200.8 311.67 204.79 306.04 207.58 302.66C210.37 299.27 216.45 293.61 221.08 290.09C225.71 286.56 232.88 282.11 237 280.19C241.13 278.28 249.45 275.46 255.5 273.93C262.76 272.09 269.22 271.13 274.5 271.09ZM313 296.57C316.57 299.19 323.33 305.2 328.01 309.92C332.69 314.64 338.09 320.65 340.01 323.28C341.93 325.91 343.84 328.04 344.25 328.03C344.66 328.01 345 327.55 345 327C345 326.45 343.31 322.75 341.25 318.78C338.93 314.31 335.02 309.05 331 305.01C326.6 300.57 322.08 297.25 317 294.7C312.88 292.64 308.6 290.95 307.5 290.95C306.4 290.95 305.73 291.14 306 291.38C306.27 291.62 309.43 293.95 313 296.57ZM315.46 308.75C319.61 312.19 325.81 318.42 329.25 322.6C332.69 326.79 335.61 329.71 335.75 329.1C335.89 328.5 334.76 325.66 333.25 322.8C331.74 319.94 328.25 315.29 325.5 312.46C322.75 309.62 318.14 306.11 315.25 304.65C312.36 303.19 309.55 302 309 302C308.45 302 307.98 302.11 307.96 302.25C307.94 302.39 311.32 305.31 315.46 308.75ZM309 315C309.55 315 313.29 318.46 317.3 322.68C321.32 326.91 324.7 329.95 324.81 329.43C324.93 328.92 323.67 326.36 322.01 323.75C320.31 321.07 316.93 317.69 314.25 315.99C311.64 314.33 309.16 312.98 308.75 312.99C308.34 312.99 308 313.45 308 314C308 314.55 308.45 315 309 315ZM251.5 322.41C249.3 323.7 245.01 327.4 241.96 330.63C238.26 334.55 235.66 338.49 234.12 342.5C232.86 345.8 231.37 350.98 230.82 354C230.11 357.85 230.14 361.61 230.93 366.5C231.55 370.35 233.44 376.43 235.14 380C237.04 384.02 240.28 388.51 243.61 391.75C246.63 394.69 251.75 398.29 255.25 399.92C258.69 401.53 264.2 403.34 267.5 403.95C270.8 404.57 275.98 404.77 279 404.4C282.02 404.03 286.98 402.82 290 401.72C293.02 400.61 297.3 398.48 299.5 396.98C301.7 395.48 305.51 392.06 307.96 389.38C310.41 386.69 313.77 381.57 315.42 378C318.19 372.03 318.43 370.61 318.45 360.5C318.46 351.43 318.07 348.54 316.24 344C315.01 340.98 312.3 336.25 310.21 333.5C308.12 330.75 304.18 326.81 301.45 324.74C298.73 322.68 294.02 320.02 291 318.84C287.15 317.33 282.65 316.58 276 316.32C268.25 316.03 265.48 316.34 261 318.01C257.98 319.14 253.7 321.12 251.5 322.41ZM203.83 394C204.8 396.48 207.37 401.17 209.55 404.42C211.72 407.68 215.97 412.53 219 415.2C222.03 417.86 227.54 421.61 231.25 423.52C234.96 425.44 238.75 426.89 239.68 426.75C240.84 426.58 240.16 425.71 237.43 423.92C235.27 422.5 229.28 417.32 224.12 412.42C218.97 407.51 212.12 400.04 208.9 395.82C205.69 391.59 202.83 388.44 202.56 388.82C202.29 389.19 202.86 391.52 203.83 394ZM229.8 399.32C231.29 400.87 233.96 403.01 235.75 404.07C237.54 405.13 239.34 405.89 239.75 405.75C240.16 405.61 236.73 401.68 232.11 397C224.19 388.97 223.82 388.72 225.42 392.5C226.35 394.7 228.32 397.77 229.8 399.32ZM215.65 396.25C217.11 399.14 220.83 403.98 223.9 407C226.98 410.03 231.86 413.74 234.75 415.25C237.64 416.76 240.34 417.74 240.75 417.42C241.16 417.1 240.15 415.88 238.5 414.71C236.85 413.53 232.42 409.63 228.66 406.04C224.9 402.44 220.18 397.36 218.16 394.73C216.15 392.11 214.16 389.98 213.75 389.98C213.34 389.99 213 390.23 213 390.5C213 390.77 214.19 393.36 215.65 396.25ZM415 271.12C419.37 271.04 426.46 271.86 432 273.07C437.23 274.21 444.88 276.44 449 278.02C453.13 279.61 460.1 283.24 464.5 286.1C468.9 288.96 475.25 294.04 478.6 297.4C481.96 300.75 486.92 306.88 489.63 311C492.34 315.13 496.06 322.1 497.9 326.5C499.74 330.9 501.83 337.43 502.56 341C503.28 344.57 504.18 350.65 504.55 354.5C504.94 358.47 504.72 365.39 504.05 370.5C503.4 375.45 501.54 383.55 499.92 388.5C498.3 393.45 494.79 401.1 492.12 405.5C489.45 409.9 484.62 416.37 481.38 419.87C478.15 423.38 472.8 428.28 469.5 430.77C466.2 433.25 459.45 437.24 454.5 439.63C449.55 442.02 441 445.13 435.5 446.55C427.03 448.73 423.82 449.06 414.5 448.76C407.41 448.53 400.83 447.66 396 446.32C391.88 445.17 385.13 442.79 381 441.03C376.88 439.27 371.25 436.33 368.5 434.49C365.75 432.65 361.7 429.61 355.5 424.33L360.48 416.92C363.22 412.84 367.11 405.68 369.12 401C371.13 396.32 373.39 389.91 374.14 386.75C374.89 383.58 375.84 380.99 376.25 381C376.66 381 378.08 382.69 379.39 384.75C380.71 386.81 383.52 390.12 385.64 392.09C387.76 394.07 390.85 396.59 392.5 397.7C394.15 398.81 397.98 400.62 401 401.72C404.02 402.83 409.2 404.01 412.5 404.36C416.4 404.77 420.95 404.45 425.5 403.46C429.35 402.62 434.75 400.71 437.5 399.22C440.25 397.72 444.86 394.14 447.75 391.25C450.74 388.26 454.28 383.31 455.97 379.75C457.61 376.31 459.43 370.57 460.03 367C460.8 362.35 460.8 358.51 460.03 353.5C459.43 349.65 457.64 343.8 456.05 340.5C454.3 336.88 450.84 332.26 447.33 328.85C443.75 325.39 438.8 321.93 434.5 319.89C428.56 317.07 426.14 316.52 418.5 316.18C411.21 315.87 408.27 316.21 403 317.96C399.43 319.15 394.14 321.67 391.25 323.56C388.36 325.45 384.2 329.25 382 332C379.8 334.75 378 337.45 378 338C378 338.55 377.44 339 376.75 339C376.06 339 374.92 336.64 374.22 333.75C373.52 330.86 371.37 324.68 369.45 320C367.52 315.32 363.71 308.01 360.98 303.75C358.24 299.49 356.16 295.66 356.36 295.25C356.56 294.84 359.6 292.31 363.11 289.64C366.63 286.96 372.43 283.31 376 281.51C379.57 279.72 385.65 277.29 389.5 276.12C393.35 274.94 398.98 273.37 402 272.62C405.02 271.87 410.88 271.19 415 271.12ZM126 274L170 274L169.99 336.25C169.98 384.87 169.68 399.59 168.65 403.5C167.91 406.25 166.41 410.52 165.3 413C164.19 415.48 161.26 420.2 158.78 423.5C156.07 427.12 151.54 431.37 147.39 434.2C143.6 436.78 137.57 439.92 134 441.17C128.01 443.26 125.77 443.45 83.5 443.5L83 400L101.5 400C119.77 400 120.04 399.97 126 395L126 274ZM537.5 273.99L550.5 296.53C557.65 308.93 563.73 319.06 564 319.03C564.27 319 570.35 308.84 590.5 273.92L611.75 273.96C628.08 273.99 632.99 274.29 632.98 275.25C632.96 275.94 622.9 294.05 610.62 315.5C598.33 336.95 587.78 355.4 587.17 356.5C586.21 358.23 589.49 364.51 611.03 402.25C624.76 426.31 636 446.45 636 447C636 447.64 628.3 447.91 592.82 447.5L578.66 422.76C570.87 409.15 564.16 398.01 563.75 398.01C563.34 398 556.59 409.26 534.5 448.03L513.5 448.04C501.95 448.05 492.16 447.82 491.75 447.53C491.34 447.24 493.4 442.84 496.32 437.75C499.25 432.66 510.58 412.98 521.49 394C532.4 375.02 541.31 359.05 541.29 358.5C541.26 357.95 536.99 350.07 531.79 341C526.59 331.93 515.96 313.36 508.17 299.75C500.38 286.14 494 274.77 494 274.5C494 274.23 503.79 274 537.5 273.99ZM275.08 349C277.75 349 279.88 349.75 281.75 351.35C283.26 352.64 284.84 355.11 285.25 356.85C285.75 358.94 285.49 361.18 284.5 363.5C283.65 365.48 281.7 367.65 280 368.5C278.35 369.32 276.1 370 275 370C273.9 370 271.65 369.32 270 368.5C268.21 367.6 266.37 365.49 265.43 363.25C264.56 361.16 264.11 358.28 264.43 356.75C264.74 355.24 266.39 352.88 268.08 351.5C270.2 349.78 272.4 349 275.08 349Z" />
</svg>