<svg xmlns="http://www.w3.org/2000/svg" viewBox="0 0 720 720" width="720" height="720"><style>tspan { white-space:pre }.shp0 { fill: #f0a256 } .shp1 { fill: #000000 } </style><path class="shp0" d="M-17 -12L740 -12L740 727L-17 727L-17 -12Z" /><path fill-rule="evenodd" class="shp1" d="M598.75 45.94C603.31 46.94 610.39 49.82 614.5 52.34C618.6 54.86 624.2 62.14 626.93 68.52C631.19 78.44 631.91 111.59 631.94 296.51C631.97 487.91 631.34 515 626.51 531.14C622.52 544.48 616.49 554.08 604.09 566.89C594.41 576.88 580.03 587.47 570.56 591.56C558.32 596.85 547.02 598.77 527.45 598.9C507.39 599.02 497.27 597.39 485.99 592.21C477.79 588.45 465.28 580.25 458.2 574C451.13 567.75 441.96 555.93 437.82 547.72C433.69 539.51 429.24 526.08 427.94 517.87C426.29 507.45 427.32 496.95 431.35 483.05C435.89 467.39 440.73 459.57 454.09 446.31C465.74 434.75 476.28 427.82 487.65 424.22C496.77 421.33 513.08 416.22 523.9 412.87C535.46 409.29 549.13 401.88 557.06 394.88C565.12 387.77 574.53 374.42 580.41 361.72C589.38 342.37 590.37 336.73 591.38 299C591.99 276.2 591.28 256.4 589.81 255C588.34 253.59 562.52 258.44 532.42 265.77C502.33 273.1 475.47 279.07 472.73 279.05C469.99 279.02 461.93 274.92 454.8 269.93C447.5 264.82 438.1 261.14 433.25 261.5C428.52 261.84 411.96 265.16 396.46 268.86C371.32 274.87 367.46 275.07 360.81 270.72C356.7 268.03 342.53 252.37 329.3 235.92C316.08 219.46 303.39 206.03 301.11 206.07C298.83 206.11 296.04 209.5 294.91 213.61C293.78 217.71 293.4 305.42 295.31 595.94L284.89 617.43C278.69 630.22 269.3 643.17 261.68 649.43C254.64 655.21 241.42 663.35 232.3 667.51C219.61 673.3 209.5 675.11 189.19 675.23C167.33 675.37 159.45 673.88 144.42 666.8C134.39 662.08 121.71 654.5 116.23 649.97C110.76 645.43 102.16 633.63 97.13 623.74C90.07 609.88 87.99 601.18 88.08 585.86C88.15 573.16 90.63 560.56 94.94 551.04C98.65 542.83 106.45 531.13 112.28 525.04C118.1 518.96 128.09 511.28 134.47 507.99C140.86 504.7 159.51 499.47 175.93 496.37C192.34 493.27 211.37 487.89 218.21 484.41C225.05 480.93 234.27 473.23 238.7 467.3C243.13 461.37 248.73 452.05 251.14 446.57C254.46 439.03 255.92 401.63 258.83 147.58L267.95 135.41C273.07 128.58 281.8 121.8 287.85 119.96C293.78 118.15 364.29 100.35 444.54 80.4C531.46 58.79 593.81 44.86 598.75 45.94ZM409.56 305.49C414.21 305.41 419.92 307.27 422.26 309.63C424.6 311.99 426.09 317.61 425.58 322.1C425.04 326.86 420.93 332.41 415.76 335.37C407.54 340.08 406.36 339.96 399.9 333.82C396.06 330.17 392.67 324.13 392.37 320.39C392.06 316.65 393.9 311.8 396.46 309.61C399.01 307.42 404.9 305.57 409.56 305.49Z" /></svg>