<svg xmlns="http://www.w3.org/2000/svg" viewBox="0 0 720 720" width="720" height="720">
	<style>
		tspan { white-space:pre }
		.shp0 { fill: #ff0000 } 
		.shp1 { fill: #ffffff } 
	</style>
	<g >
		<path class="shp0" d="M113.5 296.5C103.05 297.18 92.25 298.35 89.5 299.11C85.85 300.11 83.15 301.83 79.5 305.49C76.57 308.43 73.98 312.15 73.23 314.5C72.53 316.7 71.3 325.25 70.49 333.5C69.69 341.75 69.02 353.68 69.01 360C68.99 366.32 69.47 377.35 70.06 384.5C70.65 391.65 71.89 400.43 72.81 404C74.21 409.37 75.37 411.38 79.5 415.55C84.01 420.1 85.24 420.76 92 422.25C96.39 423.22 108.82 424.34 122 424.96C134.38 425.54 153.5 426 164.5 425.97C175.5 425.95 195.07 425.31 208 424.56C225.21 423.55 232.84 422.7 236.5 421.4C239.35 420.38 243.25 417.86 245.57 415.55C248.1 413.02 250.23 409.62 251.23 406.5C252.11 403.75 253.43 396.32 254.16 390C254.9 383.68 255.5 370.4 255.5 360.5C255.5 350.6 254.9 337.32 254.16 331C253.43 324.68 252.11 317.25 251.24 314.5C250.18 311.18 248.11 307.97 245.07 304.96C241.08 300.98 239.56 300.2 233 298.76C228.88 297.85 216.28 296.63 205 296.05C193.72 295.46 172.8 295.05 158.5 295.13C144.2 295.21 123.95 295.83 113.5 296.5Z" />
		<path fill-rule="evenodd" class="shp1" d="M551.5 300.09C555.35 300.06 559.05 300.36 559.71 300.77C560.58 301.29 561.01 307.02 561.21 320.81C561.5 340.05 561.51 340.11 563.5 338.3C564.6 337.3 566.74 335.7 568.25 334.74C569.76 333.78 572.69 332.72 574.75 332.38C577.36 331.95 579.86 332.34 583 333.69C585.82 334.9 588.3 336.9 589.65 339.06C590.83 340.95 592.55 345.88 593.47 350C594.81 356.02 595.07 361.35 594.75 377C594.51 389.37 593.86 398.33 592.98 401.5C592.22 404.25 590.44 408.3 589.01 410.5C587.59 412.7 584.87 415.27 582.97 416.2C581.06 417.14 577.92 417.89 576 417.88C574.08 417.86 571.04 417.32 569.26 416.67C567.47 416.03 564.66 414.26 560 410L558.5 416.05L542 416L541.8 358.58C541.63 309.2 541.8 301.1 543.05 300.66C543.85 300.38 547.65 300.13 551.5 300.09ZM562.66 351.56C561.27 354.44 560.99 358.61 560.97 377.25C560.94 397.31 561.11 399.67 562.72 401.22C563.7 402.17 565.96 402.96 567.75 402.97C570.55 403 571.23 402.48 572.68 399.25C573.98 396.36 574.46 391.58 574.78 378.5C575.03 368.42 574.75 359.06 574.1 355.5C573.45 351.96 572.28 348.98 571.25 348.23C570.29 347.54 569.05 347.03 568.5 347.1C567.95 347.17 566.78 347.43 565.91 347.67C565.04 347.91 563.57 349.66 562.66 351.56ZM272.69 304L282.35 304C287.66 304 292 304.11 291.99 304.25C291.99 304.39 292.94 308.77 294.1 314C295.26 319.23 296.57 325.3 297.01 327.5C297.45 329.7 298.54 334.88 299.45 339C300.35 343.13 301.54 348.3 302.09 350.5C302.63 352.7 303.25 354.27 303.46 354C303.67 353.73 305.02 347.65 306.47 340.5C307.91 333.35 309.49 325.93 309.99 324C310.48 322.07 311.7 316.77 314.5 303.94L324 304.22C333.49 304.5 333.5 304.5 333.17 307C333 308.38 331.76 313.1 330.44 317.5C329.11 321.9 327.33 327.98 326.48 331C325.63 334.02 324.09 339.65 323.07 343.5C322.04 347.35 320.49 352.98 319.63 356C318.77 359.02 317.08 364.65 315.87 368.5C314.05 374.32 313.59 378.86 312.5 415.5L293 416L292.98 397.75C292.96 387.71 292.57 377.93 292.09 376C291.62 374.07 290.23 368.9 289 364.5C287.77 360.1 286.37 355.04 285.88 353.25C285.4 351.46 284.6 348.54 284.12 346.75C283.63 344.96 282.23 339.9 281 335.5C279.77 331.1 277.68 323.68 276.36 319C275.04 314.32 273.67 309.04 273.32 307.25L272.69 304ZM433 304L488 304L488 312C488 318.22 487.67 320.11 486.5 320.5C485.68 320.77 481.63 321 470 321L470 416L451.5 415.5L451 321L443.5 321C439.38 321 435.32 320.77 434.5 320.5C433.33 320.11 433 318.22 433 312L433 304ZM354.25 332.1C356.31 332.05 360.14 332.72 362.75 333.6C365.36 334.48 368.85 336.2 370.5 337.42C372.41 338.84 374.55 342.16 376.39 346.57C379.25 353.45 379.27 353.67 379.32 374.5C379.36 392.46 379.09 396.37 377.47 401.5C376.16 405.62 374.3 408.77 371.53 411.55C368.77 414.33 366 415.98 362.75 416.8C360.14 417.46 355.86 418 353.25 417.99C350.64 417.98 346.36 417.31 343.75 416.49C341.14 415.67 337.83 413.99 336.4 412.75C334.97 411.51 333 408.93 332.02 407C331.04 405.07 329.63 400.8 328.89 397.5C328.05 393.74 327.58 385.35 327.61 375C327.65 363.99 328.17 356.5 329.15 352.5C329.97 349.2 331.96 344.48 333.58 342C335.36 339.28 338.1 336.73 340.51 335.56C342.71 334.5 345.85 333.3 347.5 332.91C349.15 332.52 352.19 332.16 354.25 332.1ZM348.5 375.49C348.5 400.01 348.59 401.23 350.5 402.62C351.6 403.42 353.4 403.95 354.5 403.79C355.62 403.63 357.27 401.96 358.25 400C359.74 397.01 360 393.5 360 375.75C360 359.53 359.67 354.24 358.5 351.5C357.68 349.57 356.13 347.56 355.08 347.01C353.62 346.27 352.58 346.5 350.83 347.93C348.5 349.82 348.5 349.84 348.5 375.49ZM629.5 332.6C632.9 332.87 637.45 334.07 640 335.37C642.48 336.63 645.28 338.97 646.24 340.58C647.2 342.18 648.65 346.2 649.46 349.5C650.36 353.19 650.94 360.6 651 382L621 382L621.25 391.58C621.47 399.84 621.77 401.35 623.5 402.59C624.6 403.39 626.29 404.03 627.25 404.02C628.21 404.01 629.91 402.99 631.02 401.75C632.24 400.4 633.04 398.11 633.04 396C633.03 394.07 633.36 391.99 633.77 391.38C634.27 390.61 636.98 390.45 642.27 390.88C648.88 391.41 650.13 391.8 650.63 393.5C650.96 394.6 650.64 398.2 649.91 401.5C648.86 406.32 647.79 408.29 644.5 411.5C641.2 414.71 639.12 415.78 633.95 416.9C630.08 417.74 625.5 418.04 622.5 417.66C619.75 417.31 615.54 416.01 613.14 414.76C610.17 413.22 607.99 411.07 606.29 408C604.91 405.52 603.16 399.9 602.4 395.5C601.63 391.1 601.01 382.1 601.02 375.5C601.03 368.9 601.63 359.9 602.36 355.5C603.08 351.1 604.61 345.7 605.75 343.5C606.9 341.3 608.77 338.71 609.92 337.75C611.06 336.79 613.83 335.43 616.06 334.74C618.3 334.05 620.89 333.18 621.81 332.8C622.74 332.42 626.2 332.33 629.5 332.6ZM621.25 359.42L621 370L633 370C633 360.7 632.55 355.75 632 353C631.33 349.67 630.33 347.67 629 347C627.9 346.45 626.65 346 626.22 346C625.8 346 624.56 346.64 623.47 347.42C621.75 348.66 621.47 350.2 621.25 359.42ZM144.95 333.17C145.35 333.35 155.86 339.35 168.31 346.5C180.76 353.65 190.95 359.95 190.95 360.5C190.95 361.05 180.75 367.35 168.27 374.5C155.8 381.65 145.23 387.61 144.79 387.75C144.36 387.89 144.05 375.59 144.12 360.42C144.18 345.25 144.56 332.98 144.95 333.17ZM407 334L407.02 364.25C407.04 380.89 407.49 396.3 408.02 398.5C408.56 400.7 409.11 402.64 409.25 402.81C409.39 402.97 410.85 403.11 412.5 403.11C414.15 403.11 416.3 402.3 417.28 401.31C418.92 399.65 419.06 396.85 419 334L428.5 334C437.53 334 438.03 334.11 438.53 336.25C438.82 337.49 438.93 355.82 438.5 415.5L423.5 416.11L421.91 407.5L419.21 410.93C417.72 412.82 414.7 415.17 412.5 416.16C410.3 417.15 406.81 417.97 404.75 417.98C402.69 417.99 399.31 417.31 397.25 416.46C395.19 415.61 392.77 413.92 391.88 412.71C390.98 411.49 389.68 408.7 388.97 406.5C388.07 403.71 387.56 392.78 387.28 370.5C387.05 352.9 387.13 337.49 387.45 336.25C388 334.12 388.52 334 407 334ZM481.89 334L491.44 334C499.05 334 501.1 334.31 501.5 335.5C501.77 336.32 502 351.63 502 369.5C502 399.45 502.14 402.07 503.75 402.88C504.71 403.37 506.4 403.53 507.5 403.24C508.6 402.95 510.3 401.99 511.28 401.11C512.93 399.63 513.06 396.92 513 334L532 334L532 416L516.5 415.5L515.9 411C515.57 408.52 515.24 406.95 515.17 407.5C515.1 408.05 513.8 409.91 512.27 411.64C510.75 413.36 507.7 415.51 505.5 416.41C503.3 417.31 500.15 418.03 498.5 418.01C496.85 417.99 493.74 417.41 491.58 416.73C488.86 415.88 486.88 414.31 482.5 407.65L481.89 334Z" />
	</g>
</svg>